# xmcd
#
# Track frame offsets: 
#        150
#        17623
#        31169
#        43773
#        65220
#        90147
#        114138
#        131880
#        148150
#        165254
#        176146
#        190799
#
# Disc length: 2792 seconds
#
# Revision: 3
# Processed by: cddbd v1.5.2PL0 Copyright (c) Steve Scherf et al.
# Submitted via: ExactAudioCopy v0.95b4
#
DISCID=9a0ae60c
DTITLE=Home Groan - The Opening Act
DYEAR=2004
DGENRE=Organic Rock
TTITLE0=Cowboys And Cactus
TTITLE1=Kids On A Bridge
TTITLE2=A Guitar She Holds In Her Hands
TTITLE3=I Drive
TTITLE4=Masked Man
TTITLE5=The Opening Act
TTITLE6=White Dwarf
TTITLE7=Dog In A Tavern
TTITLE8=Moral Lies
TTITLE9=Market Value
TTITLE10=Easy Terms
TTITLE11=Too Much Sympathy
EXTD=
EXTT0=
EXTT1=
EXTT2=
EXTT3=
EXTT4=
EXTT5=
EXTT6=
EXTT7=
EXTT8=
EXTT9=
EXTT10=
EXTT11=
PLAYORDER=
